PathFileType	4	(X/Y/Z)	D:\telocate\uwb02-Unnamed.trc
DataRate	CameraRate	NumFrames	NumMarkers	Units	OrigDataRate	OrigDataStartFrame	OrigNumFrames
100.00	100.00	      193	0	mm	100.00	2842	      4547
Frame#	Time	
		

2842	28.410	-748.87897	-2430.94775	1226.64014	
2843	28.420	-743.54767	-2429.76807	1227.11536	
2844	28.430	-737.35742	-2428.33032	1227.99353	
2845	28.440	-731.00732	-2426.88306	1227.67712	
2846	28.450	-724.91992	-2425.53882	1228.64014	
2847	28.460	-718.02570	-2424.26196	1228.43689	
2848	28.470	-711.86835	-2423.40991	1228.71606	
2849	28.480	-704.74762	-2421.74097	1228.31885	
2850	28.490	-698.56610	-2420.88062	1228.54712	
2851	28.500	-691.74097	-2420.29565	1228.44153	
2852	28.510	-683.94727	-2420.73340	1228.55798	
2853	28.520	-678.68481	-2418.57690	1228.38281	
2854	28.530	-671.80402	-2417.21606	1228.91272	
2855	28.540	-663.46704	-2417.26147	1228.17786	
2856	28.550	-658.60077	-2414.33643	1226.76025	
2857	28.560	-650.51929	-2414.04272	1226.68530	
2858	28.570	-642.87872	-2413.24658	1226.10486	
2859	28.580	-637.10669	-2411.14258	1225.89771	
2860	28.590	-630.16052	-2409.37598	1225.46826	
2861	28.600	-623.33862	-2408.34253	1225.31299	
2862	28.610	-616.16791	-2407.09570	1225.13440	
2863	28.620	-609.45752	-2405.63135	1225.12317	
2864	28.630	-602.49188	-2404.56812	1224.37805	
2865	28.640	-596.03894	-2403.49609	1224.26807	
2866	28.650	-589.45636	-2402.74390	1224.25037	
2867	28.660	-583.31128	-2401.63501	1224.32971	
2868	28.670	-576.68213	-2400.94727	1223.77966	
2869	28.680	-569.43506	-2400.66699	1223.73657	
2870	28.690	-563.96985	-2399.25000	1223.54846	
2871	28.700	-556.83563	-2399.21338	1223.28418	
2872	28.710	-551.06213	-2397.22754	1223.14893	
2873	28.720	-543.78809	-2397.50928	1222.31177	
2874	28.730	-537.36316	-2397.43774	1222.69202	
2875	28.740	-531.89813	-2396.79907	1223.17444	
2876	28.750	-525.48260	-2396.36646	1222.80811	
2877	28.760	-521.42523	-2395.06665	1223.26880	
2878	28.770	-514.70398	-2395.52661	1222.76086	
2879	28.780	-509.63843	-2395.32080	1223.23145	
2880	28.790	-503.46274	-2395.18115	1222.71802	
2881	28.800	-499.08456	-2394.01172	1223.28833	
2882	28.810	-493.59927	-2393.73804	1223.30444	
2883	28.820	-487.87042	-2393.70093	1223.63745	
2884	28.830	-482.40460	-2393.62280	1223.43030	
2885	28.840	-475.63089	-2394.75000	1223.24048	
2886	28.850	-469.65805	-2395.05249	1223.10571	
2887	28.860	-465.40286	-2394.30591	1223.22156	
2888	28.870	-460.06546	-2395.14868	1223.46216	
2889	28.880	-453.65799	-2396.49292	1223.25427	
2890	28.890	-449.56451	-2396.01929	1223.56104	
2891	28.900	-443.96619	-2396.75513	1223.40552	
2892	28.910	-439.16504	-2397.47876	1223.90674	
2893	28.920	-433.86325	-2397.89160	1223.62000	
2894	28.930	-429.29117	-2399.04956	1224.51904	
2895	28.940	-424.16373	-2399.83228	1224.36670	
2896	28.950	-419.54416	-2400.33740	1224.37439	
2897	28.960	-414.52216	-2401.36157	1224.52393	
2898	28.970	-408.40372	-2402.26147	1224.18909	
2899	28.980	-403.38135	-2402.72266	1224.36584	
2900	28.990	-397.50940	-2403.89893	1223.69543	
2901	29.000	-392.04770	-2404.62427	1223.74390	
2902	29.010	-386.11356	-2406.39307	1223.57800	
2903	29.020	-381.27225	-2407.04004	1223.36938	
2904	29.030	-375.79163	-2407.81079	1222.88928	
2905	29.040	-370.28619	-2409.03760	1223.25098	
2906	29.050	-364.88324	-2410.18018	1222.77490	
2907	29.060	-359.27750	-2411.42676	1222.87866	
2908	29.070	-354.10355	-2412.44458	1222.87659	
2909	29.080	-348.53635	-2413.96411	1222.75366	
2910	29.090	-343.50919	-2414.97559	1223.46899	
2911	29.100	-338.46857	-2415.66943	1224.01892	
2912	29.110	-333.29218	-2417.34204	1224.13525	
2913	29.120	-328.11789	-2418.16040	1224.62683	
2914	29.130	-323.30975	-2419.71655	1225.48755	
2915	29.140	-318.89233	-2420.62061	1226.48169	
2916	29.150	-314.23401	-2422.11743	1227.13586	
2917	29.160	-310.06302	-2423.04175	1228.07336	
2918	29.170	-305.70367	-2424.50122	1229.18201	
2919	29.180	-300.70404	-2425.53857	1229.73633	
2920	29.190	-296.29749	-2426.73364	1230.43420	
2921	29.200	-291.78354	-2428.07935	1231.52417	
2922	29.210	-287.73337	-2429.19165	1232.20813	
2923	29.220	-282.66037	-2431.27905	1232.71313	
2924	29.230	-277.69434	-2432.40942	1233.24146	
2925	29.240	-272.46329	-2434.20996	1233.76563	
2926	29.250	-266.35175	-2435.44385	1233.53589	
2927	29.260	-260.25684	-2437.19922	1233.61951	
2928	29.270	-253.33522	-2438.82227	1233.28381	
2929	29.280	-246.04927	-2440.29980	1232.94495	
2930	29.290	-238.74207	-2442.02783	1232.49170	
2931	29.300	-231.50648	-2442.98486	1231.93762	
2932	29.310	-223.95119	-2444.43481	1231.51978	
2933	29.320	-217.19406	-2445.56738	1231.38574	
2934	29.330	-210.09007	-2446.59497	1231.16541	
2935	29.340	-203.38626	-2447.17725	1231.22766	
2936	29.350	-196.61696	-2448.53784	1231.15063	
2937	29.360	-189.75525	-2449.18237	1231.27869	
2938	29.370	-183.31134	-2450.25317	1231.34814	
2939	29.380	-177.13420	-2450.84399	1231.68677	
2940	29.390	-170.80331	-2451.87231	1232.22534	
2941	29.400	-164.30624	-2452.86694	1232.06848	
2942	29.410	-157.76767	-2454.28809	1232.10474	
2943	29.420	-151.06558	-2455.20605	1232.10913	
2944	29.430	-144.31651	-2456.42358	1232.25806	
2945	29.440	-136.85779	-2457.16284	1231.86267	
2946	29.450	-129.36812	-2458.96069	1231.67322	
2947	29.460	-122.63781	-2460.14111	1231.42200	
2948	29.470	-114.83551	-2461.60156	1231.19153	
2949	29.480	-107.21062	-2463.23535	1231.09143	
2950	29.490	-99.94353	-2464.50269	1230.51721	
2951	29.500	-91.98835	-2465.97998	1230.03418	
2952	29.510	-84.05692	-2466.83057	1229.80176	
2953	29.520	-76.53339	-2468.18359	1229.29395	
2954	29.530	-68.67718	-2469.05713	1228.85437	
2955	29.540	-60.30432	-2470.59912	1228.19739	
2956	29.550	-52.64651	-2472.06641	1227.80591	
2957	29.560	-45.22590	-2472.48169	1227.33752	
2958	29.570	-36.94027	-2473.62061	1226.72461	
2959	29.580	-29.25144	-2474.45361	1226.08777	
2960	29.590	-21.62444	-2475.29419	1225.81177	
2961	29.600	-14.34683	-2475.92358	1225.80298	
2962	29.610	-6.83344	-2477.23901	1225.59021	
2963	29.620	0.80282	-2477.72217	1225.14380	
2964	29.630	7.81741	-2478.42700	1225.32617	
2965	29.640	14.82887	-2478.67334	1225.25610	
2966	29.650	22.04363	-2478.88257	1225.16394	
2967	29.660	29.58828	-2479.36792	1224.70178	
2968	29.670	37.04930	-2479.48193	1224.77527	
2969	29.680	44.98168	-2479.43970	1224.63391	
2970	29.690	51.54031	-2479.06567	1224.46716	
2971	29.700	58.58635	-2478.79053	1224.38550	
2972	29.710	65.32170	-2478.35181	1224.37744	
2973	29.720	72.23997	-2478.67896	1224.70007	
2974	29.730	79.25691	-2478.89673	1224.40515	
2975	29.740	86.52345	-2479.11621	1224.69214	
2976	29.750	93.16958	-2479.66943	1224.51086	
2977	29.760	100.71243	-2479.86890	1223.94666	
2978	29.770	107.69238	-2481.10547	1224.21948	
2979	29.780	115.11636	-2481.82446	1224.31750	
2980	29.790	122.32299	-2482.89673	1224.02502	
2981	29.800	128.81349	-2483.16382	1223.46936	
2982	29.810	135.97198	-2484.41211	1223.53735	
2983	29.820	143.42772	-2485.62354	1223.29639	
2984	29.830	150.54320	-2486.68726	1222.70410	
2985	29.840	158.53770	-2488.07642	1222.19678	
2986	29.850	166.66997	-2489.00244	1221.31567	
2987	29.860	174.89203	-2490.80273	1220.46167	
2988	29.870	183.28859	-2492.27197	1219.53784	
2989	29.880	191.10071	-2493.45972	1218.33484	
2990	29.890	200.56030	-2496.00659	1216.88123	
2991	29.900	207.75990	-2497.87183	1216.76099	
2992	29.910	215.46921	-2499.74414	1215.93884	
2993	29.920	222.84167	-2500.95508	1215.27319	
2994	29.930	228.78049	-2502.13916	1215.09778	
2995	29.940	236.24635	-2504.19727	1214.33508	
2996	29.950	242.87350	-2506.00464	1213.72705	
2997	29.960	249.85120	-2508.42627	1213.15576	
2998	29.970	255.87714	-2509.68921	1213.40979	
2999	29.980	262.16766	-2511.98291	1212.52295	
3000	29.990	268.83841	-2514.25171	1212.09363	
3001	30.000	275.43259	-2516.45239	1211.86633	
3002	30.010	280.22928	-2517.59204	1211.56494	
3003	30.020	287.71503	-2521.02124	1211.09814	
3004	30.030	293.80835	-2523.01855	1210.91736	
3005	30.040	298.34949	-2524.47656	1210.79041	
3006	30.050	305.06039	-2527.65430	1210.41284	
3007	30.060	311.11972	-2529.97388	1210.18970	
3008	30.070	315.41870	-2531.55029	1210.56799	
3009	30.080	322.22742	-2535.24072	1210.13757	
3010	30.090	326.50623	-2536.52100	1210.32495	
3011	30.100	332.88531	-2539.85278	1209.93921	
3012	30.110	336.87015	-2541.96753	1210.26074	
3013	30.120	343.26038	-2545.75513	1209.66785	
3014	30.130	348.88980	-2548.76343	1209.83582	
3015	30.140	354.16937	-2550.94727	1209.93469	
3016	30.150	357.83224	-2553.23145	1209.83643	
3017	30.160	363.94846	-2556.92773	1210.15381	
3018	30.170	368.21500	-2559.25000	1210.13562	
3019	30.180	372.85629	-2562.32739	1210.72815	
3020	30.190	377.88144	-2565.25244	1210.32214	
3021	30.200	384.15063	-2569.41235	1210.67139	
3022	30.210	388.94464	-2572.09473	1210.74133	
3023	30.220	393.99509	-2575.53320	1211.06104	
3024	30.230	397.41861	-2577.42603	1211.57251	
3025	30.240	402.18561	-2581.15869	1211.43811	
3026	30.250	407.35684	-2584.22729	1211.39844	
3027	30.260	411.88998	-2587.97974	1211.39868	
3028	30.270	416.61060	-2591.36401	1211.28381	
3029	30.280	423.43936	-2596.02832	1210.68762	
3030	30.290	428.74786	-2599.44580	1210.62866	
3031	30.300	432.89267	-2602.86743	1210.71191	
3032	30.310	438.52975	-2606.25342	1209.95679	
3033	30.320	444.28879	-2610.32642	1209.41382	
3034	30.330	451.80066	-2614.78979	1208.30505	
